name rise30.8019peak61.5557fall86.2505.mot
datacolumns 19
datarows 27
range 24.19991500000000 24.24324000000000
endheader
time	ground_force1_vx	ground_force1_vy	ground_force1_vz	ground_force1_px	ground_force1_py	ground_force1_pz	ground_force2_vx	ground_force2_vy	ground_force2_vz	ground_force2_px	ground_force2_py	ground_force2_pz	ground_torque1_x	ground_torque1_y	ground_torque1_z	ground_torque2_x	ground_torque2_y	ground_torque2_z	
24.19991500000000	-49.31072300000000	773.98400900000001	47.01663600000000	0.02406200000000	0.00000000000000	0.10402600000000	0.00000000000000	0.00000000000000	0.00000000000000	0.00000000000000	0.00000000000000	0.00000000000000	0.00000000000000	14.08623900000000	0.00000000000000	0.00000000000000	0.00000000000000	0.00000000000000	
24.20157400000000	-49.32756200000000	772.02424099999996	46.89831800000000	0.02349100000000	0.00000000000000	0.10400400000000	0.00000000000000	0.00000000000000	0.00000000000000	0.00000000000000	0.00000000000000	0.00000000000000	0.00000000000000	13.99151700000000	0.00000000000000	0.00000000000000	0.00000000000000	0.00000000000000	
24.20324900000000	-49.36032300000000	770.00038600000005	46.76289000000000	0.02291900000000	0.00000000000000	0.10397800000000	0.00000000000000	0.00000000000000	0.00000000000000	0.00000000000000	0.00000000000000	0.00000000000000	0.00000000000000	13.89999500000000	0.00000000000000	0.00000000000000	0.00000000000000	0.00000000000000	
24.20491200000000	-49.41021100000000	767.91388400000005	46.61023100000000	0.02234600000000	0.00000000000000	0.10394700000000	0.00000000000000	0.00000000000000	0.00000000000000	0.00000000000000	0.00000000000000	0.00000000000000	0.00000000000000	13.81197700000000	0.00000000000000	0.00000000000000	0.00000000000000	0.00000000000000	
24.20657400000000	-49.47839500000000	765.76610300000004	46.44023900000000	0.02177100000000	0.00000000000000	0.10391200000000	0.00000000000000	0.00000000000000	0.00000000000000	0.00000000000000	0.00000000000000	0.00000000000000	0.00000000000000	13.72776100000000	0.00000000000000	0.00000000000000	0.00000000000000	0.00000000000000	
24.20824100000000	-49.56600400000000	763.55833399999995	46.25283900000000	0.02119600000000	0.00000000000000	0.10387300000000	0.00000000000000	0.00000000000000	0.00000000000000	0.00000000000000	0.00000000000000	0.00000000000000	0.00000000000000	13.64763100000000	0.00000000000000	0.00000000000000	0.00000000000000	0.00000000000000	
24.20991400000000	-49.67411800000000	761.29177300000003	46.04797600000000	0.02061900000000	0.00000000000000	0.10382900000000	0.00000000000000	0.00000000000000	0.00000000000000	0.00000000000000	0.00000000000000	0.00000000000000	0.00000000000000	13.57186100000000	0.00000000000000	0.00000000000000	0.00000000000000	0.00000000000000	
24.21157400000000	-49.80376700000000	758.96751099999994	45.82561800000000	0.02004100000000	0.00000000000000	0.10378000000000	0.00000000000000	0.00000000000000	0.00000000000000	0.00000000000000	0.00000000000000	0.00000000000000	0.00000000000000	13.50071100000000	0.00000000000000	0.00000000000000	0.00000000000000	0.00000000000000	
24.21324500000000	-49.95592100000000	756.58652600000005	45.58575700000000	0.01946100000000	0.00000000000000	0.10372700000000	0.00000000000000	0.00000000000000	0.00000000000000	0.00000000000000	0.00000000000000	0.00000000000000	0.00000000000000	13.43442800000000	0.00000000000000	0.00000000000000	0.00000000000000	0.00000000000000	
24.21491000000000	-50.13149100000000	754.14967400000000	45.32840400000000	0.01887800000000	0.00000000000000	0.10366900000000	0.00000000000000	0.00000000000000	0.00000000000000	0.00000000000000	0.00000000000000	0.00000000000000	0.00000000000000	13.37324500000000	0.00000000000000	0.00000000000000	0.00000000000000	0.00000000000000	
24.21657600000000	-50.33132000000000	751.65767400000004	45.05359400000000	0.01829300000000	0.00000000000000	0.10360700000000	0.00000000000000	0.00000000000000	0.00000000000000	0.00000000000000	0.00000000000000	0.00000000000000	0.00000000000000	13.31737800000000	0.00000000000000	0.00000000000000	0.00000000000000	0.00000000000000	
24.21824300000000	-50.55618000000000	749.11110399999995	44.76137900000000	0.01770600000000	0.00000000000000	0.10354000000000	-1.79014000000000	3.79395000000000	1.12583800000000	0.00000000000000	0.00000000000000	0.00000000000000	0.00000000000000	13.26702700000000	0.00000000000000	0.00000000000000	0.24333200000000	0.00000000000000	
24.21990900000000	-50.80676600000000	746.51039200000002	44.45183600000000	0.01711600000000	0.00000000000000	0.10346800000000	-2.90728500000000	7.19243900000000	1.89119800000000	0.00000000000000	0.00000000000000	0.00000000000000	0.00000000000000	13.22237400000000	0.00000000000000	0.00000000000000	0.41779500000000	0.00000000000000	
24.22157500000000	-51.08369300000000	743.85580800000002	44.12505700000000	0.01652300000000	0.00000000000000	0.10339200000000	-4.18073000000000	11.28240700000000	2.77638900000000	0.00000000000000	0.00000000000000	0.00000000000000	0.00000000000000	13.18358500000000	0.00000000000000	0.00000000000000	0.62125700000000	0.00000000000000	
24.22324000000000	-51.38748900000000	741.14745800000003	43.78115800000000	0.01592700000000	0.00000000000000	0.10331100000000	-5.57505100000000	16.01588400000000	3.76054900000000	0.00000000000000	0.00000000000000	0.00000000000000	0.00000000000000	13.15080600000000	0.00000000000000	0.00000000000000	0.84941100000000	0.00000000000000	
24.22491200000000	-51.71859500000000	738.38527799999997	43.42027100000000	0.01532700000000	0.00000000000000	0.10322500000000	-7.04523700000000	21.31387800000000	4.81607400000000	0.00000000000000	0.00000000000000	0.00000000000000	0.00000000000000	13.12416200000000	0.00000000000000	0.00000000000000	1.09639300000000	0.00000000000000	
24.22657300000000	-52.07735700000000	735.56903000000000	43.04254500000000	0.01472400000000	0.00000000000000	0.10313400000000	-8.53968300000000	27.07226100000000	5.91047400000000	0.29361000000000	0.00000000000000	-0.04805100000000	0.00000000000000	13.10376200000000	0.00000000000000	0.00000000000000	2.68021200000000	0.00000000000000	
24.22824200000000	-52.46402500000000	732.69829800000002	42.64815100000000	0.01411700000000	0.00000000000000	0.10303900000000	-10.00401100000000	33.17041200000000	7.00880900000000	0.29674300000000	0.00000000000000	-0.04876000000000	0.00000000000000	13.08968900000000	0.00000000000000	0.00000000000000	3.21011200000000	0.00000000000000	
24.22991200000000	-52.87874800000000	729.77248599999996	42.23727400000000	0.01350600000000	0.00000000000000	0.10294000000000	-11.38522600000000	39.48147900000000	8.07639200000000	0.29955100000000	0.00000000000000	-0.04942100000000	0.00000000000000	13.08201000000000	0.00000000000000	0.00000000000000	3.73409500000000	0.00000000000000	
24.23157900000000	-53.32157100000000	726.79081299999996	41.81011700000000	0.01289100000000	0.00000000000000	0.10283500000000	-12.63564200000000	45.88280300000000	9.08138900000000	0.30207700000000	0.00000000000000	-0.05003900000000	0.00000000000000	13.08076800000000	0.00000000000000	0.00000000000000	4.23716100000000	0.00000000000000	
24.23324000000000	-53.79243100000000	723.75231900000006	41.36689900000000	0.01227200000000	0.00000000000000	0.10272700000000	-13.71607100000000	52.26511600000000	9.99698100000000	0.30435700000000	0.00000000000000	-0.05062000000000	0.00000000000000	13.08598400000000	0.00000000000000	0.00000000000000	4.70637800000000	0.00000000000000	
24.23490900000000	-54.29115600000000	720.65585599999997	40.90785500000000	0.01164800000000	0.00000000000000	0.10261400000000	-14.59796600000000	58.53954600000000	10.80287100000000	0.30642000000000	0.00000000000000	-0.05117000000000	0.00000000000000	13.09765600000000	0.00000000000000	0.00000000000000	5.13164600000000	0.00000000000000	
24.23657700000000	-54.81746100000000	717.50009999999997	40.43323700000000	0.01102000000000	0.00000000000000	0.10249700000000	-15.26440100000000	64.64196099999999	11.48604800000000	0.30829100000000	0.00000000000000	-0.05169100000000	0.00000000000000	13.11576000000000	0.00000000000000	0.00000000000000	5.50612100000000	0.00000000000000	
24.23824700000000	-55.37094800000000	714.28354400000001	39.94331100000000	0.01038700000000	0.00000000000000	0.10237600000000	-15.70996000000000	70.53459700000001	12.04084300000000	0.30999100000000	0.00000000000000	-0.05218900000000	0.00000000000000	13.14024800000000	0.00000000000000	0.00000000000000	5.82630100000000	0.00000000000000	
24.23991400000000	-55.95109800000000	711.00450699999999	39.43835800000000	0.00975000000000	0.00000000000000	0.10225000000000	-15.93969400000000	76.20524200000000	12.46836400000000	0.31153800000000	0.00000000000000	-0.05266400000000	0.00000000000000	13.17105100000000	0.00000000000000	0.00000000000000	6.09182600000000	0.00000000000000	
24.24157500000000	-56.55727800000000	707.66113700000005	38.91867400000000	0.00910700000000	0.00000000000000	0.10212100000000	-15.96739200000000	81.66446300000000	12.77547800000000	0.31294700000000	0.00000000000000	-0.05311900000000	0.00000000000000	13.20807400000000	0.00000000000000	0.00000000000000	6.30505100000000	0.00000000000000	
24.24324000000000	-57.18873400000000	704.25141699999995	38.38457100000000	0.00846000000000	0.00000000000000	0.10198700000000	-15.81343100000000	86.94141700000000	12.97348400000000	0.31423300000000	0.00000000000000	-0.05355700000000	0.00000000000000	13.25119800000000	0.00000000000000	0.00000000000000	6.47046700000000	0.00000000000000	
